# xmcd
#
# Track frame offsets: 
#        193
#        26143
#        52794
#        80240
#        103228
#        126891
#        147337
#        173408
#
# Disc length: 2630 seconds
#
# Revision: 1
# Processed by: cddbd v1.5.2PL0 Copyright (c) Steve Scherf et al.
# Submitted via: ExactAudioCopyFreeDBPlugin 1.0
#
DISCID=690a4408
DTITLE=Waldo - Love Don't Grow On Trees
DYEAR=1982
DGENRE=Funk
TTITLE0=Looks Can Be Deceiving
TTITLE1=You Bring Out The Freak In Me
TTITLE2=Love Don't Grow On Trees
TTITLE3=You Get What You Pay For
TTITLE4=When It Comes To You
TTITLE5=You Better Play Your Cards Right
TTITLE6=Love I Feel Inside
TTITLE7=Spend The Night
EXTD=
EXTT0=
EXTT1=
EXTT2=
EXTT3=
EXTT4=
EXTT5=
EXTT6=
EXTT7=
PLAYORDER=
